<?xml version="1.0" encoding="UTF-8" standalone="no"?>
<!-- Generator: Adobe Illustrator 16.0.0, SVG Export Plug-In . SVG Version: 6.00 Build 0)  -->

<svg
   xmlns:dc="http://purl.org/dc/elements/1.1/"
   xmlns:cc="http://creativecommons.org/ns#"
   xmlns:rdf="http://www.w3.org/1999/02/22-rdf-syntax-ns#"
   xmlns:svg="http://www.w3.org/2000/svg"
   xmlns="http://www.w3.org/2000/svg"
   xmlns:sodipodi="http://sodipodi.sourceforge.net/DTD/sodipodi-0.dtd"
   xmlns:inkscape="http://www.inkscape.org/namespaces/inkscape"
   version="1.1"
   id="Capa_1"
   x="0px"
   y="0px"
   width="256"
   height="256"
   viewBox="0 0 256 256"
   xml:space="preserve"
   sodipodi:docname="github.svg"
   inkscape:version="0.92.4 5da689c313, 2019-01-14"><metadata
     id="metadata41"><rdf:RDF><cc:Work
         rdf:about=""><dc:format>image/svg+xml</dc:format><dc:type
           rdf:resource="http://purl.org/dc/dcmitype/StillImage" /><dc:title /></cc:Work></rdf:RDF></metadata><defs
     id="defs39" /><sodipodi:namedview
     pagecolor="#ffffff"
     bordercolor="#666666"
     borderopacity="1"
     objecttolerance="10"
     gridtolerance="10"
     guidetolerance="10"
     inkscape:pageopacity="0"
     inkscape:pageshadow="2"
     inkscape:window-width="1920"
     inkscape:window-height="1034"
     id="namedview37"
     showgrid="false"
     inkscape:zoom="1.8879199"
     inkscape:cx="147.0113"
     inkscape:cy="49.306845"
     inkscape:window-x="0"
     inkscape:window-y="22"
     inkscape:window-maximized="0"
     inkscape:current-layer="g4" /><g
     id="g4"
     transform="translate(0,-182.54901)"><path
       d="m 234.50038,250.34415 c -10.99901,-19.32025 -25.91845,-34.61613 -44.76226,-45.89106 -18.84662,-11.27552 -39.4215,-16.91184 -61.73924,-16.91184 -22.31494,0 -42.896556,5.63804 -61.739245,16.91184 C 47.414141,215.72745 32.49526,231.0239 21.496258,250.34415 10.49894,269.66382 5,290.76106 5,313.63529 c 0,27.47712 7.819567,52.18526 23.462629,74.13073 15.641378,21.9472 35.847724,37.1338 60.617354,45.56154 2.883254,0.54863 5.017649,0.16275 6.405425,-1.14785 1.388337,-1.31232 2.081663,-2.95589 2.081663,-4.9238 0,-0.32837 -0.02748,-3.28253 -0.08082,-8.86594 -0.05497,-5.58342 -0.08082,-10.45431 -0.08082,-14.61038 l -3.68372,0.65328 c -2.348675,0.44109 -5.311584,0.62798 -8.888728,0.57508 -3.575461,-0.0512 -7.287231,-0.43534 -11.130262,-1.14958 -3.844714,-0.70791 -7.420736,-2.34976 -10.73087,-4.92208 -3.308451,-2.57231 -5.657126,-5.93938 -7.045464,-10.09603 l -1.601496,-3.77824 c -1.067478,-2.51539 -2.748068,-5.30968 -5.044014,-8.37253 -2.295946,-3.06573 -4.617696,-5.14406 -6.966371,-6.23843 l -1.121328,-0.82294 c -0.747178,-0.54689 -1.440506,-1.2065 -2.081665,-1.97193 -0.640599,-0.76543 -1.120206,-1.53143 -1.440506,-2.29858 -0.32086,-0.76773 -0.05497,-1.39744 0.800468,-1.89142 0.855441,-0.49399 2.401403,-0.7338 4.644621,-0.7338 l 3.201871,0.49054 c 2.135517,0.43878 4.777004,1.74938 7.92783,3.93985 3.149143,2.18874 5.737903,5.03421 7.766839,8.53527 2.456937,4.48904 5.417042,7.90959 8.888727,10.26338 3.468882,2.35379 6.966372,3.52867 10.489103,3.52867 3.522733,0 6.565295,-0.27374 9.128812,-0.81833 2.560712,-0.54747 4.963238,-1.37041 7.206453,-2.4642 0.960899,-7.33682 3.577149,-12.97314 7.846499,-16.91299 -6.085129,-0.65558 -11.556023,-1.64299 -16.415486,-2.95589 -4.856658,-1.31463 -9.875429,-3.44815 -15.052948,-6.40634 -5.180323,-2.95416 -9.47772,-6.62258 -12.89331,-10.99891 -3.416153,-4.37863 -6.219754,-10.12708 -8.406878,-17.2402 -2.188244,-7.11599 -3.282647,-15.32462 -3.282647,-24.6282 0,-13.24688 4.218304,-24.51951 12.653227,-33.82425 -3.951294,-9.95916 -3.578265,-21.12368 1.120207,-33.49242 3.096413,-0.98625 7.688306,-0.24612 13.773432,2.21577 6.086249,2.46305 10.542393,4.573 13.37292,6.32239 2.830525,1.74881 5.098424,3.23078 6.807062,4.43268 9.931521,-2.8449 20.180541,-4.26763 30.749851,-4.26763 10.56933,0 20.82059,1.42273 30.75268,4.26763 l 6.08568,-3.93869 c 4.16165,-2.62809 9.07608,-5.03652 14.73153,-7.22583 5.6588,-2.18816 9.98594,-2.79084 12.97689,-1.80459 4.80281,12.36931 5.23081,23.53325 1.27839,33.49242 8.43436,9.30473 12.65435,20.58025 12.65435,33.82425 0,9.30357 -1.09833,17.53808 -3.28321,24.70871 -2.18769,7.17177 -5.01541,12.91448 -8.48429,17.2402 -3.47281,4.32514 -7.79769,7.9648 -12.9752,10.91839 -5.17864,2.95589 -10.1991,5.08943 -15.05576,6.40404 -4.8589,1.31463 -10.32979,2.30262 -16.41491,2.95935 5.54998,4.9238 8.32553,12.69595 8.32553,23.313 v 34.64085 c 0,1.96791 0.66753,3.6109 2.0037,4.9238 1.33448,1.3106 3.44195,1.69647 6.32521,1.14727 24.77299,-8.42659 44.97934,-23.61376 60.62015,-45.56096 C 243.17762,365.81595 251,341.10781 251,313.63068 c -0.006,-22.87135 -5.50735,-43.96686 -16.49962,-63.28653 z"
       id="path2"
       style="fill:none;fill-opacity:1;stroke:#efeeee;stroke-width:10;stroke-miterlimit:4;stroke-dasharray:none;stroke-opacity:1"
       inkscape:connector-curvature="0" /></g><g
     id="g6"
     transform="translate(0,-182.54901)" /><g
     id="g8"
     transform="translate(0,-182.54901)" /><g
     id="g10"
     transform="translate(0,-182.54901)" /><g
     id="g12"
     transform="translate(0,-182.54901)" /><g
     id="g14"
     transform="translate(0,-182.54901)" /><g
     id="g16"
     transform="translate(0,-182.54901)" /><g
     id="g18"
     transform="translate(0,-182.54901)" /><g
     id="g20"
     transform="translate(0,-182.54901)" /><g
     id="g22"
     transform="translate(0,-182.54901)" /><g
     id="g24"
     transform="translate(0,-182.54901)" /><g
     id="g26"
     transform="translate(0,-182.54901)" /><g
     id="g28"
     transform="translate(0,-182.54901)" /><g
     id="g30"
     transform="translate(0,-182.54901)" /><g
     id="g32"
     transform="translate(0,-182.54901)" /><g
     id="g34"
     transform="translate(0,-182.54901)" /></svg>