<?xml version="1.0" encoding="utf-8"?>
<!-- Generator: Adobe Illustrator 21.1.0, SVG Export Plug-In . SVG Version: 6.00 Build 0)  -->
<svg version="1.1" id="Isolation_Mode" xmlns="http://www.w3.org/2000/svg" xmlns:xlink="http://www.w3.org/1999/xlink" x="0px"
	 y="0px" viewBox="0 0 413.7 77" style="enable-background:new 0 0 413.7 77;" xml:space="preserve">
<style type="text/css">
	.st0{fill:#FFFFFF;}
	.st1{fill:#3FAE49;}
</style>
<rect x="0.2" y="0.3" class="st0" width="76.5" height="76.2"/>
<g>
	<path class="st1" d="M0,0.1v76.9h76.9V0.1H0z M23.8,11.9h10.6v10.6H23.8V11.9z M55.5,43.5H44.9V54H34.4v10.5H23.8V54h10.6V43.4
		h10.5V33H34.4V22.4h10.6v10.5h10.5V43.5z"/>
	<g>
		<path class="st0" d="M126.1,30.9c-0.5-0.5-1.2-1-1.9-1.3c-0.7-0.3-1.5-0.5-2.4-0.5h-10.5c-0.8,0-1.6,0.2-2.3,0.4
			c-0.7,0.3-1.4,0.7-1.9,1.2c-0.5,0.5-1,1.1-1.3,1.8c-0.1,0.1-0.1,0.3-0.2,0.4V16.9h-6.2v38.3c0,0.8,0.2,1.6,0.5,2.4
			c0.3,0.7,0.8,1.4,1.3,1.9c0.5,0.5,1.2,1,1.9,1.3c0.7,0.3,1.5,0.5,2.3,0.5h16.4c0.8,0,1.6-0.2,2.4-0.5c0.7-0.3,1.4-0.8,1.9-1.3
			c0.5-0.5,1-1.2,1.3-1.9c0.3-0.7,0.5-1.5,0.5-2.4v-20c0-0.8-0.2-1.6-0.5-2.4C127.1,32.1,126.7,31.5,126.1,30.9z M121.6,35.4V55h-16
			V35.4H121.6z"/>
		<rect x="139.2" y="29.2" class="st0" width="6.3" height="32.1"/>
		<rect x="138.9" y="16.9" class="st0" width="6.9" height="6.5"/>
		<path class="st0" d="M168.8,19.4h-6.3v9.8h-7.7v6.3h7.7v19.8c0,0.8,0.2,1.6,0.5,2.4c0.3,0.7,0.8,1.4,1.3,1.9
			c0.6,0.5,1.2,1,1.9,1.3c0.7,0.3,1.5,0.5,2.3,0.5h10.6V55h-10.4V35.4h10.4v-6.3h-10.4V19.4z"/>
		<polygon class="st0" points="219.8,52.6 213,29.3 213,29.2 206.7,29.2 199.8,52.6 192.4,29.2 186.1,29.2 196.4,61.2 196.5,61.3 
			202.9,61.3 209.8,38.4 216.7,61.2 216.8,61.3 223.2,61.3 233.5,29.4 233.5,29.2 227.2,29.2 		"/>
		<rect x="240.8" y="16.9" class="st0" width="6.9" height="6.5"/>
		<rect x="241.1" y="29.2" class="st0" width="6.3" height="32.1"/>
		<path class="st0" d="M282.4,43.6c-0.5-0.5-1.2-1-1.9-1.3c-0.7-0.3-1.5-0.5-2.4-0.5h-13.7v-6.4h18.6v-6.3h-18.8
			c-0.8,0-1.6,0.2-2.4,0.5c-0.7,0.3-1.4,0.8-1.9,1.3c-0.5,0.5-1,1.2-1.3,1.9c-0.3,0.7-0.5,1.5-0.5,2.4V42c0,0.8,0.2,1.6,0.5,2.4
			c0.3,0.7,0.8,1.4,1.3,1.9c0.5,0.5,1.2,1,1.9,1.3c0.7,0.3,1.5,0.5,2.4,0.5h13.7v7h-19.8v6.3h20c0.8,0,1.6-0.2,2.4-0.5
			c0.7-0.3,1.4-0.7,1.9-1.3c0.6-0.5,1-1.2,1.3-1.9c0.3-0.7,0.5-1.5,0.5-2.4v-7.4c0-0.8-0.2-1.6-0.5-2.4
			C283.4,44.8,282.9,44.1,282.4,43.6z"/>
		<path class="st0" d="M320,30.9c-0.5-0.5-1.2-1-1.9-1.3c-0.7-0.3-1.5-0.5-2.4-0.5h-15.1c-0.8,0-1.6,0.2-2.3,0.5s-1.4,0.8-1.9,1.3
			c-0.5,0.5-1,1.2-1.3,1.9c-0.3,0.7-0.5,1.5-0.5,2.4v20c0,0.8,0.2,1.6,0.5,2.4c0.3,0.7,0.8,1.4,1.3,1.9c0.5,0.5,1.2,1,1.9,1.3
			c0.7,0.3,1.5,0.5,2.3,0.5h21.2V55h-21v-6.6h21V35.2c0-0.8-0.2-1.6-0.5-2.4C321,32.1,320.6,31.5,320,30.9z M300.8,42.2v-6.7h14.8
			v6.7H300.8z"/>
		<rect x="350.2" y="16.9" class="st0" width="6.9" height="6.5"/>
		<rect x="350.5" y="29.2" class="st0" width="6.3" height="32.1"/>
		<path class="st0" d="M395.5,32.8c-0.3-0.7-0.8-1.4-1.3-1.9c-0.5-0.5-1.2-1-1.9-1.3c-0.7-0.3-1.5-0.5-2.4-0.5h-15.8
			c-0.8,0-1.6,0.2-2.3,0.5c-0.7,0.3-1.4,0.8-1.9,1.3c-0.5,0.5-1,1.2-1.3,1.9c-0.3,0.7-0.5,1.5-0.5,2.4v20c0,0.8,0.2,1.6,0.5,2.4
			c0.3,0.7,0.8,1.4,1.3,1.9c0.5,0.5,1.2,1,1.9,1.3c0.7,0.3,1.5,0.5,2.3,0.5h15.8c0.8,0,1.6-0.2,2.4-0.5c0.7-0.3,1.4-0.8,1.9-1.3
			c0.5-0.5,1-1.2,1.3-1.9c0.3-0.7,0.5-1.5,0.5-2.4v-20C396,34.4,395.8,33.6,395.5,32.8z M389.8,35.4V55h-15.4V35.4H389.8z"/>
		<rect x="333.3" y="54.6" class="st0" width="7.2" height="6.8"/>
	</g>
</g>
</svg>
